<svg xmlns="http://www.w3.org/2000/svg" xmlns:xlink="http://www.w3.org/1999/xlink" width="323" height="339" viewBox="0 0 323 339"><defs><path id="xpp7a" d="M1364.07 412.07a243.71 243.71 0 0 1-71.58 172.5 52 52 0 0 1-36.86 15.28 52.02 52.02 0 0 1-36.88-15.28 242.2 242.2 0 0 1-37.52-48.26 243.84 243.84 0 0 1-34.05-124.25c0-29.88 12.15-56.95 31.78-76.55a108.18 108.18 0 0 1 76.67-31.73c34.8 0 65.78 16.35 85.6 41.84a107.6 107.6 0 0 1 22.84 66.45"/><path id="xpp7b" d="M1368 416a243.71 243.71 0 0 1-71.56 172.5 52 52 0 0 1-36.87 15.28 51.98 51.98 0 0 1-34.27-12.85c-4.56-4.84-8.9-9.86-12.98-15.02a52.22 52.22 0 0 0 63.55-7.94 243.72 243.72 0 0 0 71.57-172.5c0-22.64-6.97-43.65-18.9-61.01 4.12 2.78 8.02 5.85 11.67 9.17a107.6 107.6 0 0 1 27.8 72.37"/><path id="xpp7c" d="M1211.6 365.37a107.75 107.75 0 0 0-31.77 76.56c0 32.38 6.43 64.07 18.62 93.38a242.35 242.35 0 0 0 32.06 55.37 51.12 51.12 0 0 1-11.68-8.77 243.54 243.54 0 0 1-33.11-41.11 243.84 243.84 0 0 1-34.05-124.25c0-29.89 12.15-56.96 31.77-76.56a108.2 108.2 0 0 1 76.67-31.73c34.81 0 65.8 16.35 85.6 41.84a107.63 107.63 0 0 0-57.44-16.46 108.06 108.06 0 0 0-76.67 31.73"/><path id="xpp7d" d="M1233.93 484.33h-10.84a54.18 54.18 0 0 1-54.22-54.14v-10.83h10.84a54.18 54.18 0 0 1 54.22 54.14z"/><path id="xpp7e" d="M1233.93 490.92h-10.85c-33.53 0-60.81-27.24-60.81-60.73v-10.83a6.59 6.59 0 0 1 6.6-6.58h10.84c33.53 0 60.81 27.24 60.81 60.73v10.83a6.59 6.59 0 0 1-6.59 6.58zm-58.48-64.97v4.24a47.65 47.65 0 0 0 47.63 47.56h4.26v-4.24a47.65 47.65 0 0 0-47.63-47.56z"/><path id="xpp7f" d="M1277.31 484.33h10.84a54.18 54.18 0 0 0 54.22-54.14v-10.83h-10.84a54.18 54.18 0 0 0-54.22 54.14z"/><path id="xpp7g" d="M1288.16 490.92h-10.85a6.59 6.59 0 0 1-6.59-6.58V473.5c0-33.49 27.28-60.73 60.81-60.73h10.85c3.64 0 6.6 2.95 6.6 6.58v10.83c0 33.49-27.29 60.73-60.82 60.73zm-4.26-13.17h4.26a47.65 47.65 0 0 0 47.63-47.56v-4.24h-4.26a47.65 47.65 0 0 0-47.63 47.56z"/><path id="xpp7h" d="M1266.17 555.8h-21.1a6.59 6.59 0 1 1 0-13.16h21.1a6.59 6.59 0 1 1 0 13.17"/><path id="xpp7i" d="M1255.62 606.43a58.68 58.68 0 0 1-41.53-17.2 249.16 249.16 0 0 1-38.53-49.57 248.88 248.88 0 0 1-15.89-31.73 249.17 249.17 0 0 1-19.08-95.86c0-30.67 11.97-59.5 33.7-81.21a114.36 114.36 0 0 1 81.33-33.66 115.24 115.24 0 0 1 90.78 44.35 113.55 113.55 0 0 1 24.26 70.52c0 65.98-26.8 130.56-73.5 177.16a58.4 58.4 0 0 1-41.54 17.2m0-296.06c-27.19 0-52.76 10.58-72 29.8a100.97 100.97 0 0 0-29.85 71.9c0 31.32 6.08 61.88 18.08 90.83a236.11 236.11 0 0 0 15.05 30.06 235.87 235.87 0 0 0 36.51 46.96 45.57 45.57 0 0 0 64.42 0c44.26-44.16 69.64-105.33 69.64-167.85 0-22.85-7.41-44.43-21.45-62.4a102.06 102.06 0 0 0-80.4-39.3"/><path id="xpp7j" d="M1390.92 517.55l-.29.3.3.29.29-.3-.3-.29"/><path id="xpp7k" d="M1390.64 517.85l.3-.3c.08.1.18.2.29.3l-.3.29-.29-.3m.3-13.16c-1.43 0-2.69.9-3.13 2.25l-1.96 5.85-5.85 1.94a3.29 3.29 0 0 0 0 6.25l5.85 1.95 1.96 5.84a3.29 3.29 0 0 0 6.25 0l1.95-5.84 5.85-1.95a3.28 3.28 0 0 0 0-6.25l-5.85-1.95-1.95-5.84a3.28 3.28 0 0 0-3.13-2.25"/><path id="xpp7l" d="M1348.08 586.96a6.59 6.59 0 1 0 0 13.17 6.59 6.59 0 0 0 0-13.17"/><path id="xpp7m" d="M1407.41 422.4a6.59 6.59 0 1 0 0 13.18 6.59 6.59 0 0 0 0-13.18"/><path id="xpp7n" d="M1203.06 271a6.59 6.59 0 1 0 0 13.17 6.59 6.59 0 0 0 0-13.17"/><path id="xpp7o" d="M1110.77 501.39a6.59 6.59 0 1 0 0 13.17 6.59 6.59 0 0 0 0-13.17"/><path id="xpp7p" d="M1097.6 402.65a6.59 6.59 0 1 0-.01 13.18 6.59 6.59 0 0 0 0-13.18"/><path id="xpp7q" d="M1374.45 314.32l-.17.5a3.3 3.3 0 0 1-2.08 2.09l-.51.17.5.17a3.3 3.3 0 0 1 2.1 2.08l.16.5.17-.5a3.3 3.3 0 0 1 2.09-2.08l.5-.17-.5-.17a3.3 3.3 0 0 1-2.09-2.08l-.17-.51"/><path id="xpp7r" d="M1374.28 314.83l.17-.51.17.5c.33.99 1.1 1.76 2.08 2.09l.51.17-.5.16a3.31 3.31 0 0 0-2.1 2.08l-.16.51-.17-.5a3.3 3.3 0 0 0-2.08-2.09l-.51-.16.5-.17a3.31 3.31 0 0 0 2.1-2.08m.16-14.21c-1.42 0-2.68.9-3.12 2.25l-2.78 8.31-8.33 2.77a3.28 3.28 0 0 0 0 6.25l8.33 2.77 2.78 8.31a3.29 3.29 0 1 0 6.25 0l2.77-8.31 8.32-2.77a3.28 3.28 0 0 0 0-6.25l-8.32-2.77-2.77-8.31a3.29 3.29 0 0 0-3.13-2.25"/><path id="xpp7s" d="M1150.32 590.79l-.17.5a3.3 3.3 0 0 1-2.08 2.09l-.51.17.5.17a3.3 3.3 0 0 1 2.1 2.08l.16.5.17-.5a3.3 3.3 0 0 1 2.09-2.08l.5-.17-.5-.17a3.3 3.3 0 0 1-2.09-2.08l-.17-.51"/><path id="xpp7t" d="M1150.16 591.3l.17-.51.17.5c.33.99 1.1 1.76 2.08 2.09l.51.17-.5.16a3.31 3.31 0 0 0-2.1 2.08l-.16.51-.17-.5a3.3 3.3 0 0 0-2.08-2.09l-.51-.16.5-.17a3.31 3.31 0 0 0 2.1-2.08m.16-14.21c-1.42 0-2.68.9-3.13 2.25l-2.77 8.31-8.33 2.77a3.28 3.28 0 0 0 0 6.25l8.33 2.77 2.77 8.31a3.29 3.29 0 0 0 6.25 0l2.78-8.3 8.32-2.78a3.28 3.28 0 0 0 0-6.25l-8.32-2.77-2.78-8.31a3.28 3.28 0 0 0-3.12-2.25"/><path id="xpp7u" d="M1120.66 339.82l-.29.3.3.29.29-.3-.3-.29"/><path id="xpp7v" d="M1120.37 340.12l.3-.3c.08.1.18.2.29.3l-.3.29-.29-.3m.3-13.16c-1.43 0-2.69.9-3.13 2.25l-1.96 5.85-5.85 1.94a3.28 3.28 0 0 0 0 6.25l5.85 1.95 1.96 5.84a3.29 3.29 0 0 0 6.25 0l1.95-5.84 5.85-1.95a3.28 3.28 0 0 0 0-6.25l-5.85-1.95-1.95-5.84a3.28 3.28 0 0 0-3.13-2.25"/></defs><g><g transform="translate(-1091 -271)"><g><g><g><use fill="#e0eeff" xlink:href="#xpp7a"/></g><g><use fill="#fff" xlink:href="#xpp7b"/></g><g><use fill="#b9d6f9" xlink:href="#xpp7c"/></g><g><use fill="#a0c4ee" xlink:href="#xpp7d"/></g><g><use fill="#2c3666" xlink:href="#xpp7e"/></g><g><use fill="#a0c4ee" xlink:href="#xpp7f"/></g><g><use fill="#2c3666" xlink:href="#xpp7g"/></g><g><use fill="#2c3666" xlink:href="#xpp7h"/></g><g><use fill="#2c3666" xlink:href="#xpp7i"/></g><g><use fill="#9adfe6" xlink:href="#xpp7j"/></g><g><use fill="#fff" xlink:href="#xpp7k"/></g><g><use fill="#fff" xlink:href="#xpp7l"/></g><g><use fill="#fff" xlink:href="#xpp7m"/></g><g><use fill="#fff" xlink:href="#xpp7n"/></g><g><use fill="#fff" xlink:href="#xpp7o"/></g><g><use fill="#fff" xlink:href="#xpp7p"/></g><g><use fill="#fff" xlink:href="#xpp7q"/></g><g><use fill="#fff" xlink:href="#xpp7r"/></g><g><use fill="#fff" xlink:href="#xpp7s"/></g><g><use fill="#fff" xlink:href="#xpp7t"/></g><g><use fill="#fff" xlink:href="#xpp7u"/></g><g><use fill="#fff" xlink:href="#xpp7v"/></g></g></g></g></g></svg>