<svg xmlns="http://www.w3.org/2000/svg" xmlns:xlink="http://www.w3.org/1999/xlink" width="33.44" height="33.44" viewBox="0 0 33.44 33.44"><defs><path id="5wq1a" d="M1402.78 2496.5a16.72 16.72 0 1 1 33.44 0 16.72 16.72 0 0 1-33.44 0z"/><path id="5wq1b" d="M1416.99 2503.3c-.1.09-.22.14-.35.14a.47.47 0 0 1-.34-.15.5.5 0 0 1 0-.7l6.02-6.15-6.02-6.16a.5.5 0 0 1 0-.7c.19-.19.5-.19.69 0l6.35 6.5c.2.2.2.52 0 .7l-6.35 6.51z"/></defs><g><g transform="translate(-1402.78 -2479.78)"><g><use fill="#fff" fill-opacity="0" stroke="#969696" stroke-miterlimit="50" xlink:href="#5wq1a"/></g><g><use fill="#979797" xlink:href="#5wq1b"/></g></g></g></svg>